<svg width="51px" height="42px" viewBox="0 0 51 42" version="1.1" xmlns="http://www.w3.org/2000/svg" xmlns:xlink="http://www.w3.org/1999/xlink">
    <g id="Artboard" stroke="none" stroke-width="1" fill="none" fill-rule="evenodd">
        <polygon id="Fill-1" fill="#424242" points="16.5919915 1.85328025 9.433273 1.85328025 9.17541588 3.0579124 3.92356668 3.06430303 5.08312786 6.92823258 9.3282201 6.26760208 10.6795824 7.45785534 0.919212883 7.45545885 0.168721326 10.3552034 1.75008583 10.3552034 2.46794731 8.94047954 10.8451203 8.93169243 8.11852002 11.7499565 5.29243781 9.94939891 4.21564558 11.1396522 6.16867451 13.9882717 1.90448176 29.5861812 4.78786555 28.1586761 6.32307044 31.886805 2.64064792 37.8260889 1.07520052 38.5242643 0 42.0023601 8.15751693 42.0023601 7.47387722 39.4381232 12.6628539 32.313379 14.923083 38.0114169 12.4829905 39.4325314 11.8081053 42.0023601 20.9174651 42.0023601 21.4586468 39.1489475 19.0273088 35.2778285 22.034846 30.8850751 29.5031522 30.8834774 38.3148622 26.5074993 31.6806124 38.3293503 29.1036329 39.0706625 28.321307 42.0023601 37.1163041 42.0023601 37.4879685 38.9180864 42.2575294 32.1152697 45.5746544 35.8809434 44.4588652 38.4331979 41.6280078 39.0546859 40.5337068 42.0023601 49.0589089 42.0023601 51 36.0798515 48.2765832 25.1255274 48.249524 11.0765448 45.455276 8.72080192 28.7964327 8.74077261 28.7924534 4.7913685 45.455276 4.79216733 48.2447489 7.01690245 48.2407696 1.85487791 25.714881 1.85567673 25.7323898 11.8298393 44.9952717 11.8322358 44.999251 15.800013 22.2282388 15.7944211 22.2194844 3.75688664 19.6242002 5.17320814 21.4705846 -3.55271368e-15"></polygon>
    </g>
</svg>